#!OML:ASF E:\Mandelcareful walks\Project 1\Capture day 1\Session 1\Subject1.ASF
:FULLY-SPECIFIED
:DEGREES
228
root -16.5749 13.7522 0.810051 -169.527 36.8462 -189.763
lowerback 27.8186 8.82851 -2.34779
upperback 7.24955 12.0203 -8.38723
thorax -5.36195 6.71602 -11.9441
lowerneck -8.94896 22.5455 15.6657
upperneck 7.52959 33.4804 -27.9887
head 11.7153 14.6563 -5.78687
rclavicle -1.50281e-013 1.81292e-013
rhumerus 51.3632 7.03468 -46.0939
rradius 129.276
rwrist 5.08696
rhand -41.3023 -21.0604
rfingers 7.12502
rthumb -14.223 -50.5534
lclavicle -1.50281e-013 1.81292e-013
lhumerus -14.9049 -36.0319 75.3939
lradius 74.7601
lwrist 10.2251
lhand -18.9176 -13.7164
lfingers 7.12502
lthumb 7.3847 16.1348
rfemur -28.379 -52.2293 9.8234
rtibia 80.9727
rfoot -34.5288 -21.8033
rtoes -35.7543
lfemur -70.6373 -5.2701 -13.8492
ltibia 70.2939
lfoot -9.93182 -21.2298
ltoes 4.54004
229
root -16.5769 13.7252 0.800335 -168.837 36.4223 -189.575
lowerback 27.3714 8.57779 -2.14507
upperback 7.15442 11.7541 -8.54034
thorax -5.23255 6.58852 -12.0738
lowerneck -9.06541 22.5995 15.705
upperneck 7.72388 33.5578 -27.8043
head 11.7849 14.6858 -5.69564
rclavicle -1.145e-013 8.26944e-014
rhumerus 52.1355 6.8025 -46.0744
rradius 128.675
rwrist 5.57087
rhand -41.594 -22.0854
rfingers 7.12502
rthumb -14.504 -51.5584
lclavicle -1.145e-013 8.26944e-014
lhumerus -15.5806 -35.4922 75.249
lradius 74.4806
lwrist 10.1389
lhand -18.5276 -13.7367
lfingers 7.12502
lthumb 7.76111 16.1009
rfemur -29.2318 -52.7135 10.4707
rtibia 81.2434
rfoot -34.1272 -21.6557
rtoes -36.3607
lfemur -71.6074 -5.62389 -13.5562
ltibia 70.5715
lfoot -9.83795 -21.1239
ltoes 5.08572
230
root -16.5468 13.7199 0.794785 -168.826 36.2692 -189.302
lowerback 27.7228 8.55814 -2.20665
upperback 7.15138 11.7104 -8.60388
thorax -5.4048 6.57005 -12.1803
lowerneck -9.40345 22.6464 15.5984
upperneck 7.9382 33.572 -27.3969
head 11.8027 14.6776 -5.51852
rclavicle 7.95139e-015 -2.94201e-014
rhumerus 52.5563 6.47844 -46.204
rradius 128.088
rwrist 5.71078
rhand -41.619 -22.4319
rfingers 7.12502
rthumb -14.5281 -51.9032
lclavicle 7.95139e-015 -2.94201e-014
lhumerus -16.1449 -35.2547 75.0553
lradius 74.2233
lwrist 10.1182
lhand -18.2249 -13.8305
lfingers 7.12502
lthumb 8.05328 15.9961
rfemur -28.5286 -52.8223 10.2929
rtibia 81.2912
rfoot -34.1705 -21.3922
rtoes -36.8269
lfemur -71.4403 -5.66515 -13.2453
ltibia 70.8001
lfoot -9.91931 -21.3416
ltoes 6.24236
231
root -16.5339 13.7082 0.789352 -168.56 36.1108 -189.089
lowerback 27.983 8.54966 -2.16557
upperback 6.90685 11.6932 -9.0839
thorax -5.5649 6.58903 -12.028
lowerneck -9.81547 22.6017 15.4839
upperneck 8.14287 33.4524 -27.0597
head 11.8194 14.595 -5.39853
rclavicle -2.38542e-014 3.02153e-014
rhumerus 52.8008 6.21869 -46.3294
rradius 127.497
rwrist 5.70757
rhand -41.5103 -22.2934
rfingers 7.12502
rthumb -14.4234 -51.7722
lclavicle -2.38542e-014 3.02153e-014
lhumerus -16.6324 -35.2845 74.9793
lradius 73.8759
lwrist 10.113
lhand -18.4079 -13.9498
lfingers 7.12502
lthumb 7.87663 15.8835
rfemur -28.589 -53.0142 10.5311
rtibia 81.4405
rfoot -34.3129 -21.026
rtoes -36.6156
lfemur -71.6989 -5.82394 -12.9134
ltibia 71.0149
lfoot -10.0402 -21.3448
ltoes 6.12313
232
root -16.5332 13.692 0.78355 -168.11 35.9054 -188.967
lowerback 27.7851 8.49734 -2.20222
upperback 6.87907 11.6128 -9.08027
thorax -5.53086 6.54329 -11.9551
lowerneck -9.94893 22.5689 15.3219
upperneck 8.02931 33.4191 -27.2363
head 11.8099 14.5536 -5.43543
rclavicle 7.95139e-016 4.45278e-014
rhumerus 53.1042 6.23587 -46.3132
rradius 127.092
rwrist 5.75713
rhand -41.4952 -22.1678
rfingers 7.12502
rthumb -14.4089 -51.6476
lclavicle 7.95139e-016 4.45278e-014
lhumerus -17.0988 -35.0682 75.1486
lradius 73.5814
lwrist 10.0721
lhand -18.5085 -13.8947
lfingers 7.12502
lthumb 7.77955 15.9421
rfemur -29.2408 -53.2937 11.0618
rtibia 81.6045
rfoot -34.3897 -20.7874
rtoes -36.2963
lfemur -72.2972 -6.08656 -12.6114
ltibia 71.1974
lfoot -10.0477 -21.2509
ltoes 6.43219
233
root -16.5148 13.6861 0.780925 -167.943 35.9035 -188.839
lowerback 27.5492 8.5655 -2.56523
upperback 7.1059 11.6253 -8.63257
thorax -5.44917 6.51972 -11.9641
lowerneck -9.88423 22.5545 15.1665
upperneck 7.67103 33.3895 -27.5072
head 11.6995 14.5476 -5.51969
rclavicle -7.95139e-015 -7.55382e-014
rhumerus 53.4211 6.50038 -46.4452
rradius 126.845
rwrist 5.96553
rhand -41.7568 -22.317
rfingers 7.12502
rthumb -14.6608 -51.7787
lclavicle -7.95139e-015 -7.55382e-014
lhumerus -17.5251 -34.7383 75.3068
lradius 73.3559
lwrist 9.94288
lhand -18.559 -13.7841
lfingers 7.12502
lthumb 7.73083 16.0545
rfemur -29.2576 -53.3292 11.259
rtibia 81.6593
rfoot -34.514 -20.7162
rtoes -36.5819
lfemur -72.4121 -5.99398 -12.4279
ltibia 71.3581
lfoot -10.1563 -21.4091
ltoes 6.84802
